<svg preserveAspectRatio="none" overflow="visible" style="display: block;" width="14.8335" height="18.167" viewBox="0 0 14.8335 18.167" fill="none" xmlns="http://www.w3.org/2000/svg">
<g id="Group">
<path id="Vector" d="M7.41684 7.41667C9.25779 7.41667 10.7502 5.92428 10.7502 4.08333C10.7502 2.24238 9.25779 0.75 7.41684 0.75C5.57589 0.75 4.08351 2.24238 4.08351 4.08333C4.08351 5.92428 5.57589 7.41667 7.41684 7.41667Z" stroke="#FF5C3A" stroke-width="1.5"/>
<path id="Vector_2" d="M14.0818 14.0837C14.0829 13.947 14.0835 13.8081 14.0835 13.667C14.0835 11.5962 11.0985 9.91699 7.41684 9.91699C3.73517 9.91699 0.750173 11.5962 0.750173 13.667C0.750173 15.7378 0.750173 17.417 7.41684 17.417C9.27601 17.417 10.6168 17.2862 11.5835 17.0528" stroke="#FF5C3A" stroke-width="1.5" stroke-linecap="round"/>
</g>
</svg>
